<?xml version="1.0" standalone="no"?>
<!DOCTYPE svg PUBLIC "-//W3C//DTD SVG 1.1//EN" "http://www.w3.org/Graphics/SVG/1.1/DTD/svg11.dtd" >
<svg xmlns="http://www.w3.org/2000/svg">
<metadata>
This is a custom SVG webfont generated by Font Squirrel.
Copyright   :  1988 1991 1995 2002 Adobe Systems Incorporated All rights reserved
Designer    : Dr Rudolf Wolf
Foundry URL : httpwwwadobecomtype
</metadata>
<defs>
<font id="MemphisLTStdMedium" horiz-adv-x="1251" >
<font-face units-per-em="2048" ascent="1479" descent="-569" />
<missing-glyph horiz-adv-x="512" />
<glyph unicode=" "  horiz-adv-x="512" />
<glyph unicode="&#x09;" horiz-adv-x="512" />
<glyph unicode="&#xa0;" horiz-adv-x="512" />
<glyph unicode="!" horiz-adv-x="569" d="M154 119q0 53 37.5 92t91 39t92.5 -39t39 -92q0 -55 -38 -92t-93 -37q-53 0 -91 37t-38 92zM186 1479h215l-41 -1114h-135z" />
<glyph unicode="&#x22;" horiz-adv-x="681" d="M94 1346q-12 166 82 165.5t82 -165.5l-37 -418q-8 -63 -45 -63.5t-45 63.5zM424 1346q-12 166 82 165.5t82 -165.5l-37 -418q-8 -63 -45 -63.5t-45 63.5z" />
<glyph unicode="#" horiz-adv-x="1024" d="M70 438v137h221l41 283h-205v137h223l60 439h149l-61 -439h243l60 439h149l-61 -439h184v-137h-203l-41 -283h187v-137h-205l-61 -438h-148l62 438h-244l-62 -438h-147l61 438h-202zM438 575h244l41 283h-244z" />
<glyph unicode="$" horiz-adv-x="1024" d="M41 0v455h131q-2 -111 71.5 -218.5t190.5 -107.5v522q-78 20 -138 48t-119.5 74t-92.5 120t-33 168q0 141 107.5 241.5t275.5 100.5v151h101v-151q84 0 231 -113v86h139v-387h-133q-16 102 -80 185q-70 90 -157 90v-451q96 -25 167.5 -54.5t140 -78.5t104.5 -125t36 -174 q0 -182 -131 -286.5t-317 -104.5v-168h-101v168q-129 0 -254 133v-123h-139zM211 1034q0 -82 68.5 -134t154.5 -62v426q-102 0 -162.5 -62t-60.5 -168zM535 129q125 0 206.5 57.5t81.5 180.5q0 80 -46 135t-87 72.5t-133 48.5q-14 6 -22 8v-502z" />
<glyph unicode="%" horiz-adv-x="1705" d="M84 1137q0 143 100.5 242.5t243.5 99.5t243.5 -99.5t100.5 -243t-100.5 -244.5t-243.5 -101t-243.5 100.5t-100.5 245.5zM227 1137q0 -86 57.5 -146.5t143.5 -60.5t143.5 60.5t57.5 146.5q0 82 -59.5 142t-141.5 60t-141.5 -59t-59.5 -143zM305 -33l963 1512h129 l-965 -1512h-127zM934 313q0 143 98 242.5t241.5 99.5t246 -100t102.5 -242q0 -143 -102.5 -244.5t-246 -101.5t-241.5 100.5t-98 245.5zM1077 313q0 -86 57.5 -146.5t143.5 -60.5t143.5 60.5t57.5 146.5q0 82 -59.5 142.5t-141.5 60.5t-141.5 -59.5t-59.5 -143.5z" />
<glyph unicode="&#x26;" horiz-adv-x="1478" d="M78 354q0 135 76.5 235.5t210.5 192.5q-176 190 -177 381q0 131 100.5 223.5t250.5 92.5q137 0 236 -93.5t99 -228.5q0 -111 -66.5 -201t-184.5 -184l301 -321q43 43 96 151.5t76 204.5h-144v141h443v-141h-129q-33 -135 -97.5 -270.5t-132.5 -204.5l174 -191h185v-141 h-291l-176 182q-215 -215 -455 -215q-166 0 -280.5 110.5t-114.5 276.5zM272 356q0 -90 67 -151.5t155 -61.5q172 0 319 162l-340 363q-201 -138 -201 -312zM358 1167q0 -51 27 -106t52.5 -87t72.5 -83q80 47 137.5 119.5t57.5 150.5q0 76 -51.5 126t-129.5 50 q-74 0 -120 -48t-46 -122z" />
<glyph unicode="'" horiz-adv-x="454" d="M145 1346q-12 166 82.5 165.5t81.5 -165.5l-37 -418q-8 -63 -45 -63.5t-45 63.5z" />
<glyph unicode="(" horiz-adv-x="569" d="M86 647q0 436 313 864h131q-10 -20 -35.5 -57t-35.5 -57q-6 -12 -29.5 -54.5t-32 -58.5t-28 -53t-28.5 -59.5t-22.5 -55.5t-21.5 -61q-59 -199 -59 -393q0 -487 286 -881h-139q-299 430 -299 866z" />
<glyph unicode=")" horiz-adv-x="569" d="M39 1511h131q313 -428 313 -864t-299 -866h-139q287 393 287 881q0 195 -60 393q-8 29 -21 61.5t-22.5 55t-29 59.5t-27.5 53t-31.5 58t-29.5 55q-10 20 -36 57t-36 57z" />
<glyph unicode="*" horiz-adv-x="796" d="M111 1253l41 95l198 -78v209h107v-217l198 67l31 -104l-205 -62l115 -184l-94 -59l-109 190l-141 -176l-82 65l152 177z" />
<glyph unicode="+" horiz-adv-x="1228" d="M141 397v154h396v395h153v-395h395v-154h-395v-397h-153v397h-396z" />
<glyph unicode="," horiz-adv-x="512" d="M100 -182l127 428h183l-127 -428h-183z" />
<glyph unicode="-" horiz-adv-x="681" d="M88 442v160h506v-160h-506z" />
<glyph unicode="." horiz-adv-x="512" d="M127 119q0 53 38 92t91 39t92 -39t39 -92q0 -55 -38 -92t-93 -37q-53 0 -91 37t-38 92z" />
<glyph unicode="/" horiz-adv-x="569" d="M-18 -33l458 1544h146l-463 -1544h-141z" />
<glyph unicode="0" horiz-adv-x="1024" d="M78 463v508q0 248 113.5 378t320.5 130t321.5 -130t114.5 -378v-508q0 -248 -113.5 -372t-322.5 -124t-321.5 124t-112.5 372zM254 465q0 -170 50 -254t210 -84q158 0 208 84t50 254v512q0 172 -50 257t-208 85q-160 0 -210 -85t-50 -257v-512z" />
<glyph unicode="1" horiz-adv-x="1024" d="M256 0v137h184v1172h-184v137h360v-1309h187v-137h-547z" />
<glyph unicode="2" horiz-adv-x="1024" d="M78 0v139l579 713q84 100 84 223q0 102 -68.5 173t-170.5 71q-133 0 -193.5 -86t-60.5 -225v-105h-168v101q0 209 115.5 342t328.5 133q168 0 281 -117t113 -287q0 -104 -37 -181t-115 -175l-465 -582h469v266h168v-403h-860z" />
<glyph unicode="3" horiz-adv-x="1024" d="M76 360v82h172q0 -139 62.5 -227t193.5 -88q268 0 268 268q0 139 -78 203t-225 72v137q127 0 205 66.5t78 189.5q0 115 -67 185.5t-183 70.5q-94 0 -153.5 -58.5t-77 -135t-13.5 -169.5h-172v43q0 209 118 344.5t326 135.5q176 0 287 -124t111 -294q0 -98 -47 -189.5 t-133 -134.5q88 -39 144 -128t56 -224q0 -205 -126 -311.5t-292 -106.5q-201 0 -327.5 109.5t-126.5 283.5z" />
<glyph unicode="4" horiz-adv-x="1024" d="M61 377v139l541 930h154v-932h174v-137h-174v-240h174v-137h-533v137h183v240h-519zM221 514h359v600h-5z" />
<glyph unicode="5" horiz-adv-x="1024" d="M72 418h168q-4 -119 62.5 -205t193.5 -86q276 0 276 313q0 330 -354 330q-98 0 -217 -25v701h628v-137h-469v-379h127q236 0 348.5 -131t112.5 -367q0 -217 -118.5 -341t-333.5 -124q-203 0 -315.5 124t-108.5 327z" />
<glyph unicode="6" horiz-adv-x="1024" d="M76 449v610q0 193 112.5 306.5t321.5 113.5q176 0 296 -108.5t120 -280.5h-168q-10 109 -75 169t-173 60q-117 0 -187.5 -65.5t-70.5 -176.5v-289q129 104 278 105q70 0 139.5 -25.5t133 -76t103.5 -143.5t40 -212q0 -96 -28.5 -177t-73.5 -133t-103.5 -89t-117 -53.5 t-113.5 -16.5q-72 0 -144.5 28t-139 82t-108.5 150.5t-42 221.5zM252 428q0 -123 69.5 -212t186.5 -89t189.5 90t72.5 213q0 141 -66.5 222t-203.5 81q-129 0 -188.5 -85t-59.5 -220z" />
<glyph unicode="7" horiz-adv-x="1024" d="M78 1022v424h880v-139l-542 -1307h-185l535 1309h-520v-287h-168z" />
<glyph unicode="8" horiz-adv-x="1024" d="M74 365q0 131 48 212.5t159 163.5q-102 74 -145.5 147t-43.5 191q0 182 118 291t300 109t300 -108.5t118 -291.5q0 -119 -42 -191.5t-143 -146.5q109 -82 157 -163.5t48 -212.5q0 -166 -133 -282t-303 -116q-172 0 -305 116t-133 282zM233 395q0 -121 87.5 -194.5 t189.5 -73.5q104 0 191 73.5t87 194.5t-87 191.5t-191 70.5t-190.5 -70.5t-86.5 -191.5zM252 1065q0 -119 72.5 -187.5t185.5 -68.5t185.5 68.5t72.5 187.5t-68.5 186.5t-181.5 67.5q-115 0 -190.5 -68.5t-75.5 -185.5z" />
<glyph unicode="9" horiz-adv-x="1024" d="M76 1010q0 96 28.5 177t73.5 133t103.5 89t117 53.5t113.5 16.5q72 0 144.5 -28t139 -82t108.5 -150.5t42 -221.5v-610q0 -193 -112.5 -306.5t-321.5 -113.5q-176 0 -296 108.5t-120 280.5h168q10 -109 74.5 -169t173.5 -60q117 0 187.5 65.5t70.5 176.5v288 q-129 -104 -278 -104q-70 0 -139.5 25.5t-133 76t-103.5 143.5t-40 212zM252 1016q0 -141 66.5 -222t203.5 -81q131 0 189.5 85t58.5 220q0 123 -69.5 212t-186.5 89t-189.5 -90t-72.5 -213z" />
<glyph unicode=":" horiz-adv-x="512" d="M127 119q0 53 38 92t91 39t92 -39t39 -92q0 -55 -38 -92t-93 -37q-53 0 -91 37t-38 92zM127 836q0 53 38 92t91 39t92 -39t39 -92q0 -55 -38 -92t-93 -37q-53 0 -91 37t-38 92z" />
<glyph unicode=";" horiz-adv-x="512" d="M100 -182l127 428h183l-127 -428h-183zM150 836q0 53 37.5 92t91 39t92.5 -39t39 -92q0 -55 -38 -92t-93 -37q-53 0 -91 37t-38 92z" />
<glyph unicode="&#x3c;" horiz-adv-x="1228" d="M94 399v148l1041 461v-168l-828 -367l828 -367v-167z" />
<glyph unicode="=" horiz-adv-x="1228" d="M141 244v153h944v-153h-944zM141 551v154h944v-154h-944z" />
<glyph unicode="&#x3e;" horiz-adv-x="1228" d="M94 -61v167l828 367l-828 367v168l1041 -461v-148z" />
<glyph unicode="?" horiz-adv-x="1024" d="M84 1090q0 197 115.5 309t294 112t294 -112.5t115.5 -308.5q0 -158 -92 -268.5t-252 -131.5v-301h-176v453q37 -6 80 -6q111 0 188.5 64.5t77.5 199.5q0 106 -69.5 174.5t-178.5 68.5q-111 0 -174 -78.5t-53 -174.5h-170zM344 119q0 53 38 92t91 39t92 -39t39 -92 q0 -55 -38 -92t-93 -37q-53 0 -91 37t-38 92z" />
<glyph unicode="@" horiz-adv-x="1638" d="M43 707q0 352 238.5 578t578.5 226q309 0 521 -188t212 -469q0 -121 -46 -239.5t-144 -205.5t-223 -87q-96 0 -149.5 60t-51.5 99h-4q-27 -45 -99.5 -100t-158.5 -57q-31 0 -62.5 9t-68.5 35.5t-60.5 86t-23.5 143.5q0 70 27.5 158t78.5 176t139.5 148.5t194.5 60.5 q23 0 40 -3t31.5 -11.5t24 -13.5t19.5 -19.5t14 -19.5t14.5 -23.5t12.5 -22.5l22 80h158l-137 -557q-2 -23 -5 -55.5t17.5 -61t58.5 -28.5q111 0 189 145t78 301q0 129 -71 255t-216 215t-332 89q-252 0 -429 -188.5t-177 -540.5q0 -244 181 -423t446 -179q135 0 231 26.5 t211 79.5l27 -84q-84 -59 -211 -97t-256 -38q-209 0 -376 73t-264.5 185.5t-148.5 237.5t-51 244zM676 616q0 -90 36 -137t89 -47q82 0 158.5 120t97.5 335q0 143 -92.5 143t-190.5 -120t-98 -294z" />
<glyph unicode="A" horiz-adv-x="1478" d="M37 0v141h141l416 1196h-180v142h671v-142h-178l398 -1196h137v-141h-514v141h178l-117 365h-512l-121 -365h179v-141h-498zM528 647h416l-205 631h-4z" />
<glyph unicode="B" d="M51 0v141h176v1196h-172v142h553q244 0 359.5 -90.5t115.5 -276.5q0 -129 -67.5 -208t-173.5 -105v-4q45 -10 88 -31t94 -61.5t82 -116.5t31 -176q0 -410 -535 -410h-551zM422 141h158q195 0 278.5 71t83.5 218q0 150 -89 216.5t-275 66.5h-156v-572zM422 854h203 q102 0 183 67.5t81 161.5q0 121 -74 187.5t-201 66.5h-192v-483z" />
<glyph unicode="C" horiz-adv-x="1593" d="M86 741.5q0 321.5 205 545.5t520 224q272 0 457 -157v125h159v-459h-149q-45 154 -170 234.5t-291 80.5q-236 0 -386 -171t-150 -419q0 -250 150.5 -426t385.5 -176q365 0 498 328h180q-66 -231 -241 -367.5t-433 -136.5q-322 0 -528.5 226.5t-206.5 548z" />
<glyph unicode="D" horiz-adv-x="1478" d="M51 0v141h176v1196h-176v142h621q141 0 271 -49.5t232.5 -139.5t164 -233.5t61.5 -317.5q0 -141 -48 -271t-139.5 -235.5t-243 -169t-339.5 -63.5h-580zM422 141h178q283 0 444.5 174t161.5 433q0 262 -160.5 426.5t-465.5 164.5h-158v-1198z" />
<glyph unicode="E" d="M53 0v141h176v1196h-176v142h1143v-396h-176v254h-596v-471h502v-159h-502v-566h596v299h176v-440h-1143z" />
<glyph unicode="F" d="M57 0v141h181v1196h-177v142h1133v-396h-176v254h-586v-471h516v-159h-516v-566h209v-141h-584z" />
<glyph unicode="G" horiz-adv-x="1705" d="M76 739.5q0 321.5 221 546.5t534 225q268 0 461 -180v148h160v-514h-141q-33 158 -174 266q-137 104 -306 104q-96 0 -193 -39t-180 -110.5t-135.5 -188t-52.5 -258t52.5 -258t135.5 -188.5t180 -111t193 -39q180 0 318.5 109.5t173.5 255.5h-387v160h715v-160h-172v-508 h-160v176q-119 -111 -232.5 -160t-255.5 -49q-313 0 -534 225.5t-221 547z" />
<glyph unicode="H" horiz-adv-x="1478" d="M49 0v141h170v1196h-170v142h555v-142h-190v-483h651v483h-188v142h553v-142h-170v-1196h170v-141h-556v141h191v553h-651v-553h188v-141h-553z" />
<glyph unicode="I" horiz-adv-x="681" d="M63 0v141h179v1196h-174v142h550v-142h-182v-1196h178v-141h-551z" />
<glyph unicode="J" horiz-adv-x="681" d="M25 -66h77q154 0 154 144v1259h-199v142h578v-142h-184v-1194q0 -385 -324 -385h-102v176z" />
<glyph unicode="K" horiz-adv-x="1366" d="M63 0v141h175v1196h-170v142h550v-142h-186v-569h4l522 569h-157v142h530v-142h-135l-534 -581v-4l526 -611h143v-141h-532v141h157l-520 596h-4v-596h184v-141h-553z" />
<glyph unicode="L" horiz-adv-x="1138" d="M57 0v141h181v1196h-177v142h562v-142h-191v-1196h459v293h176v-434h-1010z" />
<glyph unicode="M" horiz-adv-x="1820" d="M63 0v141h177v1196h-177v142h478l379 -1010h4l383 1010h450v-142h-176v-1196h176v-141h-540v141h180v1125h-4l-430 -1137h-101l-434 1137h-4v-1125h186v-141h-547z" />
<glyph unicode="N" horiz-adv-x="1478" d="M59 0v141h168v1196h-164v142h381l621 -1084h4v942h-170v142h520v-142h-166v-1337h-168l-669 1155h-4v-1014h182v-141h-535z" />
<glyph unicode="O" horiz-adv-x="1705" d="M76 739.5q0 321.5 224 546.5t552 225t552 -225t224 -546.5t-224 -547t-552 -225.5t-552 225.5t-224 547zM270 739.5q0 -186.5 90.5 -326t220.5 -205t271 -65.5t271 65.5t220.5 205t90.5 326t-90.5 325.5t-220.5 204.5t-271 65.5t-271 -65.5t-220.5 -204.5t-90.5 -325.5z " />
<glyph unicode="P" d="M63 0v141h177v1196h-177v142h551q262 0 417 -111t155 -344q0 -111 -36 -195t-93.5 -134t-136 -82.5t-153.5 -44t-159 -11.5h-174v-416h189v-141h-560zM434 698h162q215 4 305 97.5t90 230.5q0 166 -100 238.5t-332 72.5h-125v-639z" />
<glyph unicode="Q" horiz-adv-x="1705" d="M76 739.5q0 321.5 224 546.5t552 225t552 -225t224 -547q0 -231 -121 -418.5t-323 -279.5l71 -141h215v-142h-342l-114 228q-27 -6 -80 -15q-53 -4 -82 -4q-328 0 -552 225.5t-224 547zM270 739.5q0 -186.5 90.5 -326t220.5 -205t271 -65.5q41 0 80 7l-84 165l156 86 l98 -198q147 68 239.5 206t92.5 330q0 186 -90.5 325.5t-220.5 205t-271 65.5t-271 -65.5t-220.5 -204.5t-90.5 -325.5z" />
<glyph unicode="R" horiz-adv-x="1366" d="M61 0v141h175v1196h-175v142h715q195 -2 303.5 -100.5t108.5 -268.5q0 -131 -61.5 -206t-190.5 -132v-4q86 0 140 -61.5t54 -155.5v-410h173v-141h-367v532q0 102 -70.5 137.5t-191.5 35.5h-244v-564h176v-141h-545zM430 846h217q346 0 346 266q0 57 -21.5 100t-53 67 t-81 37t-92.5 17t-98 4h-217v-491z" />
<glyph unicode="S" d="M90 1118q0 193 129 293t326 100q211 0 370 -157v125h160v-435h-164q-23 129 -121 214t-229 85q-135 0 -211 -62t-76 -157q0 -72 49.5 -120t127 -74.5t173 -50t190.5 -56t173 -80t127 -133.5t49 -207q0 -188 -134 -312t-324 -124q-139 0 -238.5 34t-212.5 122v-123h-160 v502h158q29 -162 140.5 -264.5t273.5 -102.5q125 0 219 68.5t94 187.5q0 84 -49 140.5t-127 87t-173 55t-190.5 54.5t-173.5 73t-127 122.5t-49 194.5z" />
<glyph unicode="T" d="M68 1069v410h1116v-410h-176v268h-285v-1196h184v-141h-563v141h184v1196h-284v-268h-176z" />
<glyph unicode="U" horiz-adv-x="1478" d="M63 1337v142h527v-142h-176v-870q0 -160 89 -242t236.5 -82t236.5 82t89 242v870h-176v142h526v-142h-155v-813q0 -270 -141.5 -413.5t-379 -143.5t-379 143.5t-141.5 413.5v813h-156z" />
<glyph unicode="V" horiz-adv-x="1366" d="M39 1337v142h508v-142h-156l291 -979h4l311 979h-161v142h491v-142h-143l-428 -1337h-152l-416 1337h-149z" />
<glyph unicode="W" horiz-adv-x="2048" d="M41 1337v142h483v-142h-162l291 -993h4l279 993h-166v142h516v-142h-166l299 -997h4l291 997h-158v142h451v-142h-123l-395 -1337h-146l-323 1034h-4l-295 -1034h-150l-405 1337h-125z" />
<glyph unicode="X" horiz-adv-x="1366" d="M39 0v141h147l392 588v4l-367 604h-166v142h530v-142h-151l262 -430h4l275 430h-187v142h551v-142h-166l-372 -592v-4l374 -600h164v-141h-551v141h170l-268 428h-4l-273 -428h172v-141h-536z" />
<glyph unicode="Y" horiz-adv-x="1366" d="M41 1337v142h520v-142h-170l301 -489h4l291 489h-151v142h489v-142h-147l-398 -659v-537h174v-141h-544v141h176v523l-393 673h-152z" />
<glyph unicode="Z" horiz-adv-x="1138" d="M45 0v139l809 1198h-596v-258h-176v400h1012v-142l-807 -1196h633v314h176v-455h-1051z" />
<glyph unicode="[" horiz-adv-x="569" d="M100 -197v1676h422v-113h-270v-1450h270v-113h-422z" />
<glyph unicode="\" horiz-adv-x="569" d="M-16 1511h145l459 -1544h-142z" />
<glyph unicode="]" horiz-adv-x="569" d="M47 -84h270v1450h-270v113h422v-1676h-422v113z" />
<glyph unicode="^" horiz-adv-x="1228" d="M172 698l369 748h147l369 -748h-170l-271 568h-4l-272 -568h-168z" />
<glyph unicode="_" horiz-adv-x="1024" d="M0 -154h1024v-102h-1024v102z" />
<glyph unicode="`" horiz-adv-x="681" d="M74 1370h223l182 -289h-137z" />
<glyph unicode="a" d="M63 475q0 213 127 352.5t342 139.5q90 0 181.5 -46.5t140.5 -117.5h6v143h316v-137h-160v-672h160v-137h-316v143h-6q-49 -72 -140 -117.5t-182 -45.5q-215 0 -342 141t-127 354zM240 475q0 -150 78.5 -253t230.5 -103q123 0 215 97t92 259q0 160 -92 256t-215 96 q-152 0 -230.5 -103.5t-78.5 -248.5z" />
<glyph unicode="b" d="M59 0v137h160v1204h-160v138h336v-666q137 154 316 154q215 0 345 -141.5t130 -354.5t-130 -352t-345 -139q-213 0 -322 155h-4v-135h-326zM375 471q0 -150 85 -251t242 -101q152 0 230 102.5t78 249.5q0 137 -90.5 246.5t-217.5 109.5q-125 0 -226 -98t-101 -258z" />
<glyph unicode="c" horiz-adv-x="1024" d="M59 473q0 217 122 355.5t343 138.5q72 0 149 -34t115 -89h5v102h139v-325h-131q-25 92 -100.5 149t-172.5 57q-125 0 -208.5 -102t-83.5 -250q0 -162 80.5 -259t215.5 -97q168 0 326 170l105 -94q-182 -215 -439 -215q-221 0 -343 138t-122 355z" />
<glyph unicode="d" d="M66 473q0 213 128 353.5t343 140.5q90 0 180 -47.5t137 -116.5h2v538h-180v138h356v-1342h148v-137h-318v143h-4q-51 -72 -142 -117.5t-179 -45.5q-215 0 -343 140t-128 353zM242 473.5q0 -147.5 78.5 -251t230.5 -103.5q123 0 214 96t91 258t-91 258t-214 96 q-152 0 -230.5 -103t-78.5 -250.5z" />
<glyph unicode="e" horiz-adv-x="1138" d="M63 469q0 211 146.5 354.5t353.5 143.5q219 0 358.5 -158t139.5 -395h-821q12 -133 105 -214t208 -81q106 0 188 42t125 113h174q-37 -131 -178 -212.5t-311 -81.5q-201 0 -344.5 140t-143.5 349zM240 551h645q0 111 -98.5 193.5t-225.5 82.5q-121 0 -215 -80.5 t-106 -195.5z" />
<glyph unicode="f" horiz-adv-x="681" d="M78 0v137h174v672h-172v137h172v289q0 104 69.5 174t174.5 70h110v-138h-74q-104 0 -104 -131v-264h178v-137h-178v-672h178v-137h-528z" />
<glyph unicode="g" d="M76 471q0 197 124 346.5t347 149.5q205 0 325 -156h5v135h325v-137h-164v-762q0 -473 -491 -473q-156 0 -283 71.5t-174 211.5h201q27 -72 101.5 -108t162.5 -36q150 2 228.5 73t78.5 239v112h-4q-10 -47 -105.5 -102t-205.5 -55q-223 0 -347 147t-124 344zM252 471 q0 -137 83 -244.5t226 -107.5q104 0 202.5 98t98.5 254q0 168 -78.5 262t-222.5 94q-129 0 -219 -92t-90 -264z" />
<glyph unicode="h" d="M68 0v137h157v1204h-157v138h333v-676q59 66 156.5 115t181.5 49q119 0 203 -73t84 -202v-555h150v-137h-484v137h158v512q0 170 -127 170q-92 0 -165 -40t-157 -117v-525h156v-137h-489z" />
<glyph unicode="i" horiz-adv-x="681" d="M90 0v137h168v672h-162v137h338v-809h158v-137h-502zM180 1178v188h250v-188h-250z" />
<glyph unicode="j" horiz-adv-x="569" d="M39 -270q201 0 201 213v866h-174v137h350v-932q0 -227 -77 -326.5t-300 -113.5v156zM162 1178v188h250v-188h-250z" />
<glyph unicode="k" horiz-adv-x="1138" d="M72 0v137h155v1204h-147v138h323v-967l340 297h-127v137h459v-137h-108l-355 -315l355 -357h108v-137h-444v137h117l-345 344v-344h119v-137h-450z" />
<glyph unicode="l" horiz-adv-x="681" d="M92 0v137h166v1204h-162v138h338v-1342h158v-137h-500z" />
<glyph unicode="m" horiz-adv-x="1820" d="M82 0v137h149v672h-149v137h326v-133q53 59 138 106.5t161 47.5q86 0 154.5 -46.5t107.5 -123.5q92 90 168.5 130t183.5 40q133 0 201.5 -101.5t68.5 -238.5v-490h133v-137h-452v137h143v508q0 174 -164 174q-63 0 -139 -52t-113 -108v-522h136v-137h-451v137h139v508 q0 174 -164 174q-63 0 -139 -52t-112 -108v-522h143v-137h-469z" />
<glyph unicode="n" d="M66 0v137h157v672h-157v137h333v-143q59 66 156.5 115t181.5 49q121 0 206 -73t85 -202v-555h146v-137h-484v137h162v512q0 76 -35 123t-96 47q-92 0 -165 -40t-157 -117v-525h156v-137h-489z" />
<glyph unicode="o" horiz-adv-x="1138" d="M63 473q0 209 137.5 351.5t369 142.5t368.5 -142.5t137 -351.5t-137 -351t-368.5 -142t-369 142t-137.5 351zM240 473q0 -158 90 -256t239.5 -98t239.5 98t90 256t-90 256t-239.5 98t-239.5 -98t-90 -256z" />
<glyph unicode="p" d="M51 809v137h330v-135q80 84 158.5 120t191.5 36q180 0 312.5 -142.5t132.5 -355.5t-131.5 -351t-313.5 -138q-221 0 -338 149h-4v-418h176v-137h-512v137h160v1098h-162zM389 473q0 -156 87 -255t218 -99t218 99t87 255t-87 255t-218 99t-218 -99t-87 -255z" />
<glyph unicode="q" d="M76 469q0 217 131 357.5t313 140.5q240 0 346 -156h4v135h330v-137h-162v-1098h160v-137h-512v137h176v418h-4q-119 -150 -338 -149q-170 0 -307 136t-137 353zM252 471q0 -152 90 -252t217 -100q123 0 213 108.5t90 241.5q0 160 -80 259t-223 99q-139 0 -223 -99 t-84 -257z" />
<glyph unicode="r" horiz-adv-x="796" d="M66 0v137h157v672h-157v137h323v-186h4q92 207 365 207v-156q-213 -14 -286 -90t-73 -260v-324h176v-137h-509z" />
<glyph unicode="s" horiz-adv-x="1024" d="M106 0v307h138q31 -94 119 -141t184 -47q231 0 231 137q0 55 -50 85t-124 35t-162 20.5t-161.5 37t-124 88t-50.5 172.5q0 137 99.5 205t245.5 68q158 0 286 -109v88h137v-289h-145q-25 80 -94 125q-68 45 -150 45q-219 0 -219 -129q0 -55 50.5 -85.5t124 -40t161.5 -25 t162 -38t124 -82.5t50 -157q0 -147 -105.5 -218.5t-263.5 -71.5q-223 0 -325 114v-94h-138z" />
<glyph unicode="t" horiz-adv-x="681" d="M66 809v137h161v328h176v-328h181v-137h-181v-535q0 -94 16.5 -116.5t74.5 -22.5q2 0 88 6v-141q-70 -20 -152 -20q-123 0 -163 48t-40 199v582h-161z" />
<glyph unicode="u" d="M66 809v137h313v-667q0 -74 46 -113t110 -39q92 0 164.5 40t156.5 118v524h-162v137h338v-809h152v-137h-328v147h-4q-61 -78 -154.5 -122.5t-193.5 -44.5q-301 0 -301 293v16v520h-137z" />
<glyph unicode="v" horiz-adv-x="1138" d="M43 809v137h451v-137h-144l215 -551h4l238 551h-154v137h443v-137h-129l-353 -809h-120l-326 809h-125z" />
<glyph unicode="w" horiz-adv-x="1705" d="M63 809v137h439v-137h-140l199 -537h4l211 537h-139v137h448v-137h-145l213 -533h4l205 533h-135v137h415v-137h-122l-322 -809h-111l-239 600h-4l-234 -600h-114l-310 809h-123z" />
<glyph unicode="x" horiz-adv-x="1138" d="M63 0v137h123l285 326v4l-283 342h-122v137h438v-137h-105l174 -219h5l190 219h-104v137h413v-137h-123l-282 -326v-4l282 -342h123v-137h-440v137h108l-184 215h-4l-186 -215h108v-137h-416z" />
<glyph unicode="y" horiz-adv-x="1138" d="M31 809v137h442v-137h-147l225 -569h4l246 569h-142v137h426v-137h-112l-490 -1098h179v-137h-510v137h167l142 322l-316 776h-114z" />
<glyph unicode="z" horiz-adv-x="909" d="M47 0v141l571 668h-393v-176h-159v313h774v-139l-572 -670h432v203h160v-340h-813z" />
<glyph unicode="{" horiz-adv-x="681" d="M104 645q92 29 124 79t32 150v357q0 168 75 224t243 56v-22q-166 -45 -166 -248v-336q0 -123 -26 -178t-124 -80v-4q98 -25 124 -79t26 -177v-336q0 -203 166 -248v-22q-168 0 -243 56.5t-75 223.5v357q0 100 -32 150t-124 77z" />
<glyph unicode="|" horiz-adv-x="454" d="M152 -512v2048h153v-2048h-153z" />
<glyph unicode="}" horiz-adv-x="681" d="M104 -197q166 45 166 248v336q0 123 26 178.5t124 79.5v4q-98 25 -124 79t-26 177v336q0 203 -166 248v22q168 0 243 -56t75 -224v-357q0 -100 31.5 -150t124.5 -79q-92 -27 -124 -77t-32 -150v-357q0 -168 -75 -224t-243 -56v22z" />
<glyph unicode="~" horiz-adv-x="1228" d="M141 444q92 176 256 177q80 0 228 -66q14 -6 43.5 -19.5t47 -20.5t41 -16.5t42 -13.5t35.5 -4q39 0 74.5 24.5t55 50.5t50.5 73l73 -127q-41 -55 -67.5 -86t-77.5 -60.5t-111 -29.5q-86 0 -208 67q-127 72 -236 72q-104 0 -172 -148z" />
<glyph unicode="&#xa1;" horiz-adv-x="569" d="M156 965q0 53 37.5 92t91 39t92.5 -39t39 -92q0 -55 -38 -92t-93 -37q-53 0 -91 37t-38 92zM180 -393l41 1114h135l39 -1114h-215z" />
<glyph unicode="&#xa2;" horiz-adv-x="1024" d="M59 473q0 217 122 355.5t343 138.5q49 0 90 -15l82 250h86l-92 -280q66 -29 98 -78h5v102h139v-325h-131q-31 123 -150 178l-217 -664q45 -16 98 -16q168 0 326 170l105 -94q-182 -215 -439 -215q-74 0 -135 18l-92 -279h-84l98 306q-123 55 -187.5 173.5t-64.5 274.5z M236 475q0 -209 124 -301l211 649q-14 4 -43 4q-125 0 -208.5 -102.5t-83.5 -249.5z" />
<glyph unicode="&#xa3;" horiz-adv-x="1024" d="M43 -33v189q117 18 168 88.5t51 193.5q0 45 -11 115t-13 94h-195v137h166q-4 23 -16.5 71t-18.5 79t-12 74t-6 77q0 195 105.5 294.5t299.5 99.5q100 0 174 -37t114 -104.5t58.5 -147.5t18.5 -178h-172q0 63 -7.5 111t-29 96.5t-65.5 74t-109 25.5q-106 0 -160.5 -58.5 t-54.5 -162.5q0 -125 65 -314h256v-137h-231q0 -20 8 -70.5t8 -78.5q0 -190 -63 -289q94 -70 241 -70q115 0 154 66.5t39 191.5h172q4 -195 -76 -312.5t-264 -117.5q-164 0 -334 127q-47 -59 -116.5 -93t-143.5 -34z" />
<glyph unicode="&#xa4;" horiz-adv-x="1024" d="M-6 297l112 119q-102 125 -102 299q0 197 107 303l-117 119l100 100l115 -115q121 102 309 103q176 0 293 -101l117 115l104 -104l-112 -113q100 -113 100 -303q0 -182 -100 -307l110 -115l-96 -96l-115 118q-117 -111 -303 -110q-190 0 -311 108l-113 -118zM172 715 q0 -145 100.5 -246.5t243.5 -101.5q141 0 238.5 103t97.5 249q0 141 -97.5 244.5t-236.5 103.5q-145 0 -245.5 -102.5t-100.5 -249.5z" />
<glyph unicode="&#xa5;" horiz-adv-x="1024" d="M35 1309v137h387v-137h-127l221 -480h4l215 480h-110v137h362v-137h-110l-183 -389h230v-138h-308l-16 -37v-61h324v-137h-324v-410h113v-137h-406v137h117v410h-322v137h320v61l-16 37h-308v138h230l-183 389h-110z" />
<glyph unicode="&#xa6;" horiz-adv-x="454" d="M152 -358v716h153v-716h-153zM152 666v716h153v-716h-153z" />
<glyph unicode="&#xa7;" horiz-adv-x="1024" d="M74 795q0 111 72.5 179t185.5 68q-61 74 -61.5 193t75.5 181.5t197 62.5h284v-316h-139v203h-92q-106 0 -146 -36t-40 -118q0 -88 55 -137l311 -307l45 -45q37 -37 45 -46t32 -39t30 -47.5t14 -46t8 -59.5q0 -104 -71.5 -167.5t-186.5 -79.5q98 -96 99 -228 q0 -205 -277 -205h-307v314h139v-201h150q150 0 149 111q0 82 -106 188l-291 295l-45 45q-37 37 -45 46t-32 39t-30 47.5t-14 46t-8 59.5zM219 807q0 -61 41 -102l277 -287q55 -57 125 -58q55 0 99 32t44 91q0 57 -88 146l-266 260q-49 49 -109 49q-53 0 -88 -37t-35 -94z " />
<glyph unicode="&#xa8;" horiz-adv-x="681" d="M84 1104v209h186v-209h-186zM414 1104v209h186v-209h-186z" />
<glyph unicode="&#xa9;" horiz-adv-x="1638" d="M63 737.5q0 323.5 219.5 548.5t536.5 225q319 0 537.5 -224t218.5 -550q0 -324 -218 -547t-537.5 -223t-538 223.5t-218.5 547zM209 737.5q0 -272.5 177 -468t433 -195.5t433.5 195.5t177.5 467.5q0 274 -177.5 471t-433.5 197t-433 -197.5t-177 -470zM391 760 q0 74 27.5 146.5t82 138t153 106.5t225.5 41q92 0 229 -41q47 -14 47 -47v-156h-41q-16 82 -72.5 138.5t-164.5 56.5q-139 0 -209 -100.5t-72 -270.5q-2 -186 67.5 -295.5t219.5 -109.5q186 0 266 194h41l-33 -162q-2 -25 -61 -41q-96 -41 -232 -41q-213 0 -343 111 t-130 332z" />
<glyph unicode="&#xaa;" horiz-adv-x="751" d="M6 1212q0 129 84 214t223 85q59 0 117.5 -27.5t91.5 -72.5v-6h4v88h205v-86h-106v-393h106v-86h-205v90h-4q-33 -45 -92 -77t-117 -32q-139 0 -223 87t-84 216zM125 1212.5q0 -90.5 50 -154t149 -63.5q80 0 139 59.5t59 158t-59.5 155.5t-138.5 57q-98 0 -148.5 -61 t-50.5 -151.5z" />
<glyph unicode="&#xab;" horiz-adv-x="1024" d="M129 522l244 309h162l-244 -307l248 -325h-160zM485 522l244 309h162l-244 -307l248 -325h-160z" />
<glyph unicode="&#xac;" horiz-adv-x="1228" d="M141 551v154h944v-588h-153v434h-791z" />
<glyph unicode="&#xad;" horiz-adv-x="681" d="M88 442v160h506v-160h-506z" />
<glyph unicode="&#xae;" horiz-adv-x="1638" d="M63 737.5q0 323.5 219.5 548.5t536.5 225q319 0 537.5 -224t218.5 -550q0 -324 -218 -547t-537.5 -223t-538 223.5t-218.5 547zM209 737.5q0 -272.5 177 -468t433 -195.5t433.5 195.5t177.5 467.5q0 274 -177.5 471t-433.5 197t-433 -197.5t-177 -470zM459 340v37 q78 8 92 21.5t14 78.5v551q0 66 -14 80t-92 22v35h411q109 0 180.5 -53t71.5 -156q0 -80 -48 -142t-128 -85l129 -182q100 -135 156 -182v-25h-162q-33 0 -66.5 44t-91 149.5t-98.5 168.5h-88v-225q0 -66 13.5 -79t88.5 -21v-37h-368zM725 750h84q72 0 106.5 55t34.5 143 q0 170 -141 170h-84v-368z" />
<glyph unicode="&#xaf;" horiz-adv-x="681" d="M23 1149v119h639v-119h-639z" />
<glyph unicode="&#xb0;" horiz-adv-x="819" d="M117 1186q0 123 85 208t207.5 85t207.5 -85t85 -208t-85 -210t-207.5 -87t-207.5 87t-85 210zM215 1186q0 -88 55.5 -148.5t139.5 -60.5t139 60.5t55 148.5t-54 146.5t-140 58.5t-140.5 -58.5t-54.5 -146.5z" />
<glyph unicode="&#xb1;" horiz-adv-x="1228" d="M141 0v154h944v-154h-944zM141 518v154h396v274h153v-274h395v-154h-395v-278h-153v278h-396z" />
<glyph unicode="&#xb2;" horiz-adv-x="614" d="M27 590v86l376 428q53 63 54 133q0 61 -44 103t-112 42q-164 0 -164 -186v-61h-110v59q0 125 75.5 205t212.5 80q111 0 188 -71t77 -171q0 -43 -16.5 -82t-35 -63.5t-55.5 -67.5l-301 -350h303v160h111v-244h-559z" />
<glyph unicode="&#xb3;" horiz-adv-x="614" d="M25 809v49h110q0 -84 41 -137t127 -53q170 0 170 161q0 84 -49 122t-143 42v82q80 0 130 40t50 114q0 70 -42 111.5t-118 41.5q-90 0 -128 -64.5t-32 -152.5h-110v27q0 125 76.5 206t211.5 81q117 0 191 -75t74 -175q0 -59 -33 -114.5t-90 -80.5q59 -23 97 -77t38 -134 q0 -123 -84 -187.5t-193 -64.5q-129 0 -211.5 66t-82.5 172z" />
<glyph unicode="&#xb4;" horiz-adv-x="681" d="M203 1081l182 289h223l-268 -289h-137z" />
<glyph unicode="&#xb5;" d="M66 -289h137v1098h-137v137h313v-667q0 -74 46 -113t110 -39q92 0 164.5 40t156.5 118v524h-162v137h338v-809h152v-137h-328v147h-4q-61 -78 -154.5 -122.5t-193.5 -44.5q-70 0 -125 16v-422h-313v137z" />
<glyph unicode="&#xb6;" horiz-adv-x="1228" d="M121 1073q0 215 99 310.5t329 95.5h557v-123h-158v-1520h158v-123h-772v123h158v801q-180 0 -275.5 118.5t-95.5 317.5zM659 -164h121v1520h-121v-1520z" />
<glyph unicode="&#xb7;" horiz-adv-x="512" d="M127 475q0 53 38 92t91 39t92 -39t39 -92q0 -55 -38 -92t-93 -37q-53 0 -91 37t-38 92z" />
<glyph unicode="&#xb8;" horiz-adv-x="681" d="M121 -416l35 82q68 -31 133 -31q47 0 82 19.5t35 62.5q0 63 -62.5 78t-116.5 -10l-34 39l129 176h98l-96 -123l4 -4q57 25 145 -9t88 -134q0 -94 -70.5 -141.5t-169 -47.5t-200.5 43z" />
<glyph unicode="&#xb9;" horiz-adv-x="614" d="M131 590v84h115v700h-115v84h238v-784h114v-84h-352z" />
<glyph unicode="&#xba;" horiz-adv-x="684" d="M10 1208q0 127 94.5 215t231.5 88q145 0 240.5 -80.5t95.5 -216.5q0 -143 -91.5 -224t-244.5 -81q-143 0 -234.5 83t-91.5 216zM129 1208.5q0 -98.5 58.5 -156t154.5 -57.5t153.5 57.5t57.5 156t-57.5 157.5t-153.5 59t-154.5 -59t-58.5 -157.5z" />
<glyph unicode="&#xbb;" horiz-adv-x="1024" d="M129 199l248 325l-244 307h162l244 -309l-250 -323h-160zM485 199l248 325l-244 307h162l244 -309l-250 -323h-160z" />
<glyph unicode="&#xbc;" horiz-adv-x="1536" d="M131 590v84h115v700h-115v84h238v-784h114v-84h-352zM254 -33l903 1512h127l-901 -1512h-129zM852 225v84l352 559h117v-559h96v-84h-96v-141h96v-84h-346v84h127v141h-346zM965 313h233v359h-4z" />
<glyph unicode="&#xbd;" horiz-adv-x="1536" d="M66 590v84h114v700h-114v84h237v-784h115v-84h-352zM190 -33l904 1512h127l-902 -1512h-129zM913 0v86l377 428q53 63 53 133q0 61 -44 103.5t-111 42.5q-164 0 -164 -187v-61h-111v59q0 125 76 205t213 80q111 0 187.5 -70.5t76.5 -171.5q0 -43 -16 -82t-34.5 -63.5 t-55.5 -67.5l-301 -350h303v160h111v-244h-560z" />
<glyph unicode="&#xbe;" horiz-adv-x="1536" d="M82 809v49h111q0 -84 40.5 -137t126.5 -53q170 0 170 161q0 84 -49 122t-143 42v82q80 0 130 40t50 114q0 70 -42 111.5t-118 41.5q-90 0 -127.5 -64.5t-31.5 -152.5h-111v27q0 125 77 206t212 81q117 0 190.5 -75t73.5 -175q0 -59 -33 -114.5t-90 -80.5q59 -23 97 -77 t38 -134q0 -123 -84 -187.5t-192 -64.5q-129 0 -212 66t-83 172zM342 -33l903 1512h127l-901 -1512h-129zM889 225v84l352 559h109v-559h104v-84h-104v-141h104v-84h-346v84h119v141h-338zM991 309h236v359h-6z" />
<glyph unicode="&#xbf;" horiz-adv-x="1024" d="M121 -4q0 158 92 268.5t252 130.5v301h176v-452q-37 6 -80 6q-111 0 -188.5 -64.5t-77.5 -199.5q0 -106 69.5 -175t178.5 -69q111 0 174 79t53 175h170q0 -197 -115.5 -309.5t-294 -112.5t-294 112.5t-115.5 309.5zM420 967q0 55 38 92t93 37q53 0 91 -37t38 -92 q0 -53 -38 -92t-91 -39t-92 39t-39 92z" />
<glyph unicode="&#xc0;" horiz-adv-x="1478" d="M37 0v141h141l416 1196h-180v142h671v-142h-178l398 -1196h137v-141h-514v141h178l-117 365h-512l-121 -365h179v-141h-498zM467 1858h223l182 -289h-137zM528 647h416l-205 631h-4z" />
<glyph unicode="&#xc1;" horiz-adv-x="1478" d="M37 0v141h141l416 1196h-180v142h671v-142h-178l398 -1196h137v-141h-514v141h178l-117 365h-512l-121 -365h179v-141h-498zM528 647h416l-205 631h-4zM596 1569l182 289h223l-268 -289h-137z" />
<glyph unicode="&#xc2;" horiz-adv-x="1478" d="M37 0v141h141l416 1196h-180v142h671v-142h-178l398 -1196h137v-141h-514v141h178l-117 365h-512l-121 -365h179v-141h-498zM436 1569l205 289h188l205 -289h-164l-135 192l-135 -192h-164zM528 647h416l-205 631h-4z" />
<glyph unicode="&#xc3;" horiz-adv-x="1478" d="M37 0v141h141l416 1196h-180v142h671v-142h-178l398 -1196h137v-141h-514v141h178l-117 365h-512l-121 -365h179v-141h-498zM387 1587q4 94 62.5 157.5t150.5 63.5q61 0 152 -39q100 -39 131 -38q86 0 96 94h104q-6 -84 -62 -153.5t-138 -69.5q-51 0 -160 38 q-100 39 -154 39q-31 0 -58.5 -29.5t-29.5 -62.5h-94zM528 647h416l-205 631h-4z" />
<glyph unicode="&#xc4;" horiz-adv-x="1478" d="M37 0v141h141l416 1196h-180v142h671v-142h-178l398 -1196h137v-141h-514v141h178l-117 365h-512l-121 -365h179v-141h-498zM477 1591v209h187v-209h-187zM528 647h416l-205 631h-4zM807 1591v209h186v-209h-186z" />
<glyph unicode="&#xc5;" horiz-adv-x="1478" d="M37 0v141h141l416 1196h-180v142h671v-142h-178l398 -1196h137v-141h-514v141h178l-117 365h-512l-121 -365h179v-141h-498zM528 647h416l-205 631h-4zM555 1780q0 86 60.5 147.5t146.5 61.5t147.5 -62.5t61.5 -146.5q0 -88 -61.5 -148.5t-147.5 -60.5t-146.5 61.5 t-60.5 147.5zM647 1780q0 -53 31 -85t84 -32t85 31.5t32 85.5q0 51 -33 81.5t-84 34.5q-51 -2 -83 -33.5t-32 -82.5z" />
<glyph unicode="&#xc6;" horiz-adv-x="2048" d="M25 0v141h127l667 1196h-178v142h1346v-396h-177v254h-563v-471h488v-159h-488v-566h563v305h177v-446h-1110v141h176v365h-521l-190 -365h170v-141h-487zM616 647h437v690h-47z" />
<glyph unicode="&#xc7;" horiz-adv-x="1593" d="M86 741q0 322 205 546t520 224q272 0 457 -157v125h159v-459h-149q-45 154 -170 234.5t-291 80.5q-236 0 -386 -171t-150 -419q0 -250 150.5 -426t385.5 -176q365 0 498 328h180q-59 -217 -217 -351t-391 -151l-74 -92l4 -4q57 25 145.5 -9t88.5 -134q0 -94 -71 -141.5 t-169 -47.5t-201 43l35 82q68 -31 133 -31q47 0 82 19.5t35 62.5q0 63 -62.5 78t-115.5 -10l-35 39l104 143q-307 12 -503.5 236.5t-196.5 537.5z" />
<glyph unicode="&#xc8;" d="M53 0v141h176v1196h-176v142h1143v-396h-176v254h-596v-471h502v-159h-502v-566h596v299h176v-440h-1143zM358 1858h224l182 -289h-137z" />
<glyph unicode="&#xc9;" d="M53 0v141h176v1196h-176v142h1143v-396h-176v254h-596v-471h502v-159h-502v-566h596v299h176v-440h-1143zM487 1569l183 289h223l-268 -289h-138z" />
<glyph unicode="&#xca;" d="M53 0v141h176v1196h-176v142h1143v-396h-176v254h-596v-471h502v-159h-502v-566h596v299h176v-440h-1143zM328 1569l204 289h189l205 -289h-164l-135 192l-135 -192h-164z" />
<glyph unicode="&#xcb;" d="M53 0v141h176v1196h-176v142h1143v-396h-176v254h-596v-471h502v-159h-502v-566h596v299h176v-440h-1143zM369 1591v209h186v-209h-186zM698 1591v209h187v-209h-187z" />
<glyph unicode="&#xcc;" horiz-adv-x="681" d="M59 1858h224l182 -289h-137zM63 0v141h179v1196h-174v142h550v-142h-182v-1196h178v-141h-551z" />
<glyph unicode="&#xcd;" horiz-adv-x="681" d="M63 0v141h179v1196h-174v142h550v-142h-182v-1196h178v-141h-551zM188 1569l183 289h223l-268 -289h-138z" />
<glyph unicode="&#xce;" horiz-adv-x="681" d="M29 1569l204 289h189l205 -289h-164l-135 192l-135 -192h-164zM63 0v141h179v1196h-174v142h550v-142h-182v-1196h178v-141h-551z" />
<glyph unicode="&#xcf;" horiz-adv-x="681" d="M63 0v141h179v1196h-174v142h550v-142h-182v-1196h178v-141h-551zM70 1591v209h186v-209h-186zM399 1591v209h187v-209h-187z" />
<glyph unicode="&#xd0;" horiz-adv-x="1478" d="M51 0v141h176v609h-176v141h176v446h-176v142h621q141 0 271 -49.5t232.5 -139.5t164 -233.5t61.5 -317.5q0 -141 -48 -271t-139.5 -235.5t-243 -169t-339.5 -63.5h-580zM422 141h178q283 0 444.5 174t161.5 433q0 262 -160.5 425.5t-465.5 163.5h-158v-446h465v-141 h-465v-609z" />
<glyph unicode="&#xd1;" horiz-adv-x="1478" d="M59 0v141h168v1196h-164v142h381l621 -1084h4v942h-170v142h520v-142h-166v-1337h-168l-669 1155h-4v-1014h182v-141h-535zM393 1587q4 94 62.5 157.5t150.5 63.5q61 0 152 -39q100 -39 131 -38q86 0 96 94h105q-6 -84 -62.5 -153.5t-138.5 -69.5q-51 0 -160 38 q-100 39 -154 39q-31 0 -58.5 -29.5t-29.5 -62.5h-94z" />
<glyph unicode="&#xd2;" horiz-adv-x="1705" d="M76 739.5q0 321.5 224 546.5t552 225t552 -225t224 -546.5t-224 -547t-552 -225.5t-552 225.5t-224 547zM270 739.5q0 -186.5 90.5 -326t220.5 -205t271 -65.5t271 65.5t220.5 205t90.5 326t-90.5 325.5t-220.5 204.5t-271 65.5t-271 -65.5t-220.5 -204.5t-90.5 -325.5z M586 1858h223l182 -289h-137z" />
<glyph unicode="&#xd3;" horiz-adv-x="1705" d="M76 739.5q0 321.5 224 546.5t552 225t552 -225t224 -546.5t-224 -547t-552 -225.5t-552 225.5t-224 547zM270 739.5q0 -186.5 90.5 -326t220.5 -205t271 -65.5t271 65.5t220.5 205t90.5 326t-90.5 325.5t-220.5 204.5t-271 65.5t-271 -65.5t-220.5 -204.5t-90.5 -325.5z M715 1569l182 289h223l-268 -289h-137z" />
<glyph unicode="&#xd4;" horiz-adv-x="1705" d="M76 739.5q0 321.5 224 546.5t552 225t552 -225t224 -546.5t-224 -547t-552 -225.5t-552 225.5t-224 547zM270 739.5q0 -186.5 90.5 -326t220.5 -205t271 -65.5t271 65.5t220.5 205t90.5 326t-90.5 325.5t-220.5 204.5t-271 65.5t-271 -65.5t-220.5 -204.5t-90.5 -325.5z M555 1569l205 289h188l205 -289h-164l-135 192l-135 -192h-164z" />
<glyph unicode="&#xd5;" horiz-adv-x="1705" d="M76 739.5q0 321.5 224 546.5t552 225t552 -225t224 -546.5t-224 -547t-552 -225.5t-552 225.5t-224 547zM270 739.5q0 -186.5 90.5 -326t220.5 -205t271 -65.5t271 65.5t220.5 205t90.5 326t-90.5 325.5t-220.5 204.5t-271 65.5t-271 -65.5t-220.5 -204.5t-90.5 -325.5z M506 1587q4 94 62.5 157.5t150.5 63.5q61 0 151 -39q100 -39 131 -38q86 0 97 94h104q-6 -84 -62.5 -153.5t-138.5 -69.5q-51 0 -159 38q-100 39 -154 39q-31 0 -58.5 -29.5t-29.5 -62.5h-94z" />
<glyph unicode="&#xd6;" horiz-adv-x="1705" d="M76 739.5q0 321.5 224 546.5t552 225t552 -225t224 -546.5t-224 -547t-552 -225.5t-552 225.5t-224 547zM270 739.5q0 -186.5 90.5 -326t220.5 -205t271 -65.5t271 65.5t220.5 205t90.5 326t-90.5 325.5t-220.5 204.5t-271 65.5t-271 -65.5t-220.5 -204.5t-90.5 -325.5z M596 1591v209h186v-209h-186zM926 1591v209h186v-209h-186z" />
<glyph unicode="&#xd7;" horiz-adv-x="1228" d="M225 768l109 111l282 -299l279 297l106 -109l-278 -295l281 -297l-109 -108l-281 297l-280 -297l-107 108l281 295z" />
<glyph unicode="&#xd8;" horiz-adv-x="1705" d="M76 739q0 322 224 547t552 225q231 0 420 -120l141 178h174l-209 -260q250 -227 250 -570q0 -322 -224 -547t-552 -225q-250 0 -440 135l-158 -196h-168l223 278q-233 227 -233 555zM270 739q0 -246 154 -409l733 917q-139 88 -305 88q-141 0 -271 -65.5t-220.5 -205 t-90.5 -325.5zM524 244q154 -100 328 -101q141 0 271 65.5t220.5 205t90.5 325.5q0 262 -170 426z" />
<glyph unicode="&#xd9;" horiz-adv-x="1478" d="M63 1337v142h527v-142h-176v-870q0 -160 89 -242t236.5 -82t236.5 82t89 242v870h-176v142h526v-142h-155v-813q0 -270 -141.5 -413.5t-379 -143.5t-379 143.5t-141.5 413.5v813h-156zM473 1858h223l183 -289h-138z" />
<glyph unicode="&#xda;" horiz-adv-x="1478" d="M63 1337v142h527v-142h-176v-870q0 -160 89 -242t236.5 -82t236.5 82t89 242v870h-176v142h526v-142h-155v-813q0 -270 -141.5 -413.5t-379 -143.5t-379 143.5t-141.5 413.5v813h-156zM602 1569l182 289h224l-269 -289h-137z" />
<glyph unicode="&#xdb;" horiz-adv-x="1478" d="M63 1337v142h527v-142h-176v-870q0 -160 89 -242t236.5 -82t236.5 82t89 242v870h-176v142h526v-142h-155v-813q0 -270 -141.5 -413.5t-379 -143.5t-379 143.5t-141.5 413.5v813h-156zM442 1569l205 289h189l204 -289h-163l-136 192l-135 -192h-164z" />
<glyph unicode="&#xdc;" horiz-adv-x="1478" d="M63 1337v142h527v-142h-176v-870q0 -160 89 -242t236.5 -82t236.5 82t89 242v870h-176v142h526v-142h-155v-813q0 -270 -141.5 -413.5t-379 -143.5t-379 143.5t-141.5 413.5v813h-156zM483 1591v209h187v-209h-187zM813 1591v209h186v-209h-186z" />
<glyph unicode="&#xdd;" horiz-adv-x="1366" d="M41 1337v142h520v-142h-170l301 -489h4l291 489h-151v142h489v-142h-147l-398 -659v-537h174v-141h-544v141h176v523l-393 673h-152zM569 1569l183 289h223l-268 -289h-138z" />
<glyph unicode="&#xde;" d="M63 0v141h179v1196h-174v142h550v-142h-182v-75h178q262 0 417 -111t155 -344q0 -111 -36 -195t-93.5 -134t-136 -83t-153.5 -44t-159 -11h-172v-199h178v-141h-551zM436 481h160q215 4 305 97.5t90 230.5q0 166 -100 238.5t-332 72.5h-123v-639z" />
<glyph unicode="&#xdf;" d="M80 0v137h147v1010q0 154 112 259t294 105q180 0 294.5 -103t114.5 -261q0 -111 -51 -195t-162 -106v-4q156 -35 244 -152t88 -278q0 -219 -125 -325.5t-342 -106.5v155q137 -10 214 70t77 215q0 170 -101.5 253t-275.5 83v135q158 33 208 86t50 184q0 94 -63.5 148.5 t-159.5 54.5q-123 0 -181.5 -73.5t-58.5 -229.5v-924h154v-137h-477z" />
<glyph unicode="&#xe0;" d="M63 475q0 213 127 352.5t342 139.5q90 0 181.5 -46.5t140.5 -117.5h6v143h316v-137h-160v-672h160v-137h-316v143h-6q-49 -72 -140 -117.5t-182 -45.5q-215 0 -342 141t-127 354zM240 475q0 -150 78.5 -253t230.5 -103q123 0 215 97t92 259q0 160 -92 256t-215 96 q-152 0 -230.5 -103.5t-78.5 -248.5zM377 1370h223l182 -289h-137z" />
<glyph unicode="&#xe1;" d="M63 475q0 213 127 352.5t342 139.5q90 0 181.5 -46.5t140.5 -117.5h6v143h316v-137h-160v-672h160v-137h-316v143h-6q-49 -72 -140 -117.5t-182 -45.5q-215 0 -342 141t-127 354zM240 475q0 -150 78.5 -253t230.5 -103q123 0 215 97t92 259q0 160 -92 256t-215 96 q-152 0 -230.5 -103.5t-78.5 -248.5zM506 1081l182 289h223l-268 -289h-137z" />
<glyph unicode="&#xe2;" d="M63 475q0 213 127 352.5t342 139.5q90 0 181.5 -46.5t140.5 -117.5h6v143h316v-137h-160v-672h160v-137h-316v143h-6q-49 -72 -140 -117.5t-182 -45.5q-215 0 -342 141t-127 354zM240 475q0 -150 78.5 -253t230.5 -103q123 0 215 97t92 259q0 160 -92 256t-215 96 q-152 0 -230.5 -103.5t-78.5 -248.5zM346 1081l205 289h188l205 -289h-164l-135 193l-135 -193h-164z" />
<glyph unicode="&#xe3;" d="M63 475q0 213 127 352.5t342 139.5q90 0 181.5 -46.5t140.5 -117.5h6v143h316v-137h-160v-672h160v-137h-316v143h-6q-49 -72 -140 -117.5t-182 -45.5q-215 0 -342 141t-127 354zM240 475q0 -150 78.5 -253t230.5 -103q123 0 215 97t92 259q0 160 -92 256t-215 96 q-152 0 -230.5 -103.5t-78.5 -248.5zM297 1100q4 94 62.5 157.5t150.5 63.5q61 0 152 -39q100 -39 131 -39q86 0 96 94h104q-6 -84 -62.5 -153.5t-137.5 -69.5q-51 0 -160 39q-100 39 -154 39q-31 0 -58.5 -29.5t-29.5 -62.5h-94z" />
<glyph unicode="&#xe4;" d="M63 475q0 213 127 352.5t342 139.5q90 0 181.5 -46.5t140.5 -117.5h6v143h316v-137h-160v-672h160v-137h-316v143h-6q-49 -72 -140 -117.5t-182 -45.5q-215 0 -342 141t-127 354zM240 475q0 -150 78.5 -253t230.5 -103q123 0 215 97t92 259q0 160 -92 256t-215 96 q-152 0 -230.5 -103.5t-78.5 -248.5zM387 1104v209h186v-209h-186zM717 1104v209h186v-209h-186z" />
<glyph unicode="&#xe5;" d="M63 475q0 213 127 352.5t342 139.5q90 0 181.5 -46.5t140.5 -117.5h6v143h316v-137h-160v-672h160v-137h-316v143h-6q-49 -72 -140 -117.5t-182 -45.5q-215 0 -342 141t-127 354zM240 475q0 -150 78.5 -253t230.5 -103q123 0 215 97t92 259q0 160 -92 256t-215 96 q-152 0 -230.5 -103.5t-78.5 -248.5zM465 1292q0 86 60.5 147.5t146.5 61.5t147.5 -62.5t61.5 -146.5q0 -88 -61.5 -148.5t-147.5 -60.5t-146.5 61.5t-60.5 147.5zM557 1292q0 -53 30.5 -84.5t84 -31.5t85 31.5t31.5 84.5q0 51 -32.5 82t-83.5 35q-51 -2 -83 -34t-32 -83z " />
<glyph unicode="&#xe6;" horiz-adv-x="1705" d="M55 285q0 158 113 244.5t274 86.5q129 0 269 -90q4 27 4 74q0 121 -63.5 174t-198.5 53q-160 0 -273 -53l-65 127q143 66 368 66q250 0 348 -152q115 152 363 152q145 0 251.5 -84t155 -207t48.5 -262h-772q35 -295 319 -295q84 0 159 42t111 113h160 q-59 -139 -178 -216.5t-270 -77.5q-236 0 -367 167q-70 -74 -178.5 -120.5t-210.5 -46.5q-154 0 -260.5 79t-106.5 226zM231 283q0 -76 63.5 -120t141.5 -44q100 0 192.5 48t92.5 140q0 84 -82 127t-172 43q-100 0 -168 -49t-68 -145zM881 551h592q0 123 -89.5 199.5 t-216.5 76.5q-123 0 -204.5 -77.5t-81.5 -198.5z" />
<glyph unicode="&#xe7;" horiz-adv-x="1024" d="M59 473q0 217 122 355.5t343 138.5q72 0 149 -34t115 -89h5v102h139v-325h-131q-25 92 -100.5 149t-172.5 57q-125 0 -208.5 -102t-83.5 -250q0 -162 80.5 -259t215.5 -97q168 0 326 170l105 -94q-162 -188 -375 -211l-82 -107l4 -4q57 25 145 -9t88 -134 q0 -94 -70.5 -141.5t-168.5 -47.5t-201 43l35 82q68 -31 133 -31q47 0 82 19.5t35 62.5q0 63 -62.5 78t-115.5 -10l-35 39l114 160q-205 10 -317.5 146t-112.5 343z" />
<glyph unicode="&#xe8;" horiz-adv-x="1138" d="M63 469q0 211 146.5 354.5t353.5 143.5q219 0 358.5 -158t139.5 -395h-821q12 -133 105 -214t208 -81q106 0 188 42t125 113h174q-37 -131 -178 -212.5t-311 -81.5q-201 0 -344.5 140t-143.5 349zM240 551h645q0 111 -98.5 193.5t-225.5 82.5q-121 0 -215 -80.5 t-106 -195.5zM303 1370h223l183 -289h-138z" />
<glyph unicode="&#xe9;" horiz-adv-x="1138" d="M63 469q0 211 146.5 354.5t353.5 143.5q219 0 358.5 -158t139.5 -395h-821q12 -133 105 -214t208 -81q106 0 188 42t125 113h174q-37 -131 -178 -212.5t-311 -81.5q-201 0 -344.5 140t-143.5 349zM240 551h645q0 111 -98.5 193.5t-225.5 82.5q-121 0 -215 -80.5 t-106 -195.5zM432 1081l182 289h224l-269 -289h-137z" />
<glyph unicode="&#xea;" horiz-adv-x="1138" d="M63 469q0 211 146.5 354.5t353.5 143.5q219 0 358.5 -158t139.5 -395h-821q12 -133 105 -214t208 -81q106 0 188 42t125 113h174q-37 -131 -178 -212.5t-311 -81.5q-201 0 -344.5 140t-143.5 349zM240 551h645q0 111 -98.5 193.5t-225.5 82.5q-121 0 -215 -80.5 t-106 -195.5zM272 1081l205 289h189l204 -289h-163l-136 193l-135 -193h-164z" />
<glyph unicode="&#xeb;" horiz-adv-x="1138" d="M63 469q0 211 146.5 354.5t353.5 143.5q219 0 358.5 -158t139.5 -395h-821q12 -133 105 -214t208 -81q106 0 188 42t125 113h174q-37 -131 -178 -212.5t-311 -81.5q-201 0 -344.5 140t-143.5 349zM240 551h645q0 111 -98.5 193.5t-225.5 82.5q-121 0 -215 -80.5 t-106 -195.5zM313 1104v209h187v-209h-187zM643 1104v209h186v-209h-186z" />
<glyph unicode="&#xec;" horiz-adv-x="681" d="M45 1370h223l183 -289h-138zM90 0v137h168v672h-162v137h338v-809h158v-137h-502z" />
<glyph unicode="&#xed;" horiz-adv-x="681" d="M90 0v137h168v672h-162v137h338v-809h158v-137h-502zM174 1081l182 289h224l-269 -289h-137z" />
<glyph unicode="&#xee;" horiz-adv-x="681" d="M14 1081l205 289h189l204 -289h-163l-136 193l-135 -193h-164zM90 0v137h168v672h-162v137h338v-809h158v-137h-502z" />
<glyph unicode="&#xef;" horiz-adv-x="681" d="M55 1104v209h187v-209h-187zM90 0v137h168v672h-162v137h338v-809h158v-137h-502zM385 1104v209h186v-209h-186z" />
<glyph unicode="&#xf0;" horiz-adv-x="1138" d="M63 473q0 209 137.5 351.5t368.5 142.5q117 0 224 -43q-53 197 -207 331l-258 -120l-56 69l236 111q-133 92 -303 115l28 69q217 -6 408 -121l258 121l55 -69l-231 -111q166 -133 259 -339t93 -452q0 -248 -135 -398t-371 -150q-231 0 -368.5 142t-137.5 351zM240 473 q0 -158 90 -256t239.5 -98t239.5 98t90 256t-90 256t-239.5 98t-239.5 -98t-90 -256z" />
<glyph unicode="&#xf1;" d="M66 0v137h157v672h-157v137h333v-143q59 66 156.5 115t181.5 49q121 0 206 -73t85 -202v-555h146v-137h-484v137h162v512q0 76 -35 123t-96 47q-92 0 -165 -40t-157 -117v-525h156v-137h-489zM279 1100q4 94 62 157.5t151 63.5q61 0 151 -39q100 -39 131 -39q86 0 96 94 h105q-6 -84 -62.5 -153.5t-138.5 -69.5q-51 0 -160 39q-100 39 -153 39q-31 0 -58.5 -29.5t-29.5 -62.5h-94z" />
<glyph unicode="&#xf2;" horiz-adv-x="1138" d="M63 473q0 209 137.5 351.5t369 142.5t368.5 -142.5t137 -351.5t-137 -351t-368.5 -142t-369 142t-137.5 351zM240 473q0 -158 90 -256t239.5 -98t239.5 98t90 256t-90 256t-239.5 98t-239.5 -98t-90 -256zM303 1370h223l183 -289h-138z" />
<glyph unicode="&#xf3;" horiz-adv-x="1138" d="M63 473q0 209 137.5 351.5t369 142.5t368.5 -142.5t137 -351.5t-137 -351t-368.5 -142t-369 142t-137.5 351zM240 473q0 -158 90 -256t239.5 -98t239.5 98t90 256t-90 256t-239.5 98t-239.5 -98t-90 -256zM432 1081l182 289h224l-269 -289h-137z" />
<glyph unicode="&#xf4;" horiz-adv-x="1138" d="M63 473q0 209 137.5 351.5t369 142.5t368.5 -142.5t137 -351.5t-137 -351t-368.5 -142t-369 142t-137.5 351zM240 473q0 -158 90 -256t239.5 -98t239.5 98t90 256t-90 256t-239.5 98t-239.5 -98t-90 -256zM272 1081l205 289h189l204 -289h-163l-136 193l-135 -193h-164z " />
<glyph unicode="&#xf5;" horiz-adv-x="1138" d="M63 473q0 209 137.5 351.5t369 142.5t368.5 -142.5t137 -351.5t-137 -351t-368.5 -142t-369 142t-137.5 351zM223 1100q4 94 62.5 157.5t150.5 63.5q61 0 152 -39q100 -39 131 -39q86 0 96 94h105q-6 -84 -62.5 -153.5t-138.5 -69.5q-51 0 -160 39q-100 39 -153 39 q-31 0 -59 -29.5t-30 -62.5h-94zM240 473q0 -158 90 -256t239.5 -98t239.5 98t90 256t-90 256t-239.5 98t-239.5 -98t-90 -256z" />
<glyph unicode="&#xf6;" horiz-adv-x="1138" d="M63 473q0 209 137.5 351.5t369 142.5t368.5 -142.5t137 -351.5t-137 -351t-368.5 -142t-369 142t-137.5 351zM240 473q0 -158 90 -256t239.5 -98t239.5 98t90 256t-90 256t-239.5 98t-239.5 -98t-90 -256zM313 1104v209h187v-209h-187zM643 1104v209h186v-209h-186z" />
<glyph unicode="&#xf7;" horiz-adv-x="1228" d="M141 397v154h944v-154h-944zM467 94q0 61 44 104.5t103.5 43.5t103.5 -44t44 -104q0 -55 -44 -101t-102 -46q-59 0 -104 44t-45 103zM467 854q0 61 44 104t103.5 43t103.5 -44t44 -103q0 -55 -44 -101t-102 -46q-59 0 -104 44t-45 103z" />
<glyph unicode="&#xf8;" horiz-adv-x="1138" d="M2 -158l207 273q-145 139 -146 358q0 209 137.5 351.5t368.5 142.5q143 0 244 -56l150 197h155l-200 -264q158 -141 157 -371q0 -209 -137 -351t-369 -142q-150 0 -262 65l-153 -203h-152zM240 473q0 -139 69 -227l414 547q-70 35 -154 34q-150 0 -239.5 -98t-89.5 -256z M399 166q72 -47 170 -47q150 0 240 98t90 256q0 150 -80 242z" />
<glyph unicode="&#xf9;" d="M66 809v137h313v-667q0 -74 46 -113t110 -39q92 0 164.5 40t156.5 118v524h-162v137h338v-809h152v-137h-328v147h-4q-61 -78 -154.5 -122.5t-193.5 -44.5q-309 0 -301 309v520h-137zM330 1370h223l182 -289h-137z" />
<glyph unicode="&#xfa;" d="M66 809v137h313v-667q0 -74 46 -113t110 -39q92 0 164.5 40t156.5 118v524h-162v137h338v-809h152v-137h-328v147h-4q-61 -78 -154.5 -122.5t-193.5 -44.5q-309 0 -301 309v520h-137zM459 1081l182 289h223l-268 -289h-137z" />
<glyph unicode="&#xfb;" d="M66 809v137h313v-667q0 -74 46 -113t110 -39q92 0 164.5 40t156.5 118v524h-162v137h338v-809h152v-137h-328v147h-4q-61 -78 -154.5 -122.5t-193.5 -44.5q-309 0 -301 309v520h-137zM299 1081l205 289h188l205 -289h-164l-135 193l-135 -193h-164z" />
<glyph unicode="&#xfc;" d="M66 809v137h313v-667q0 -74 46 -113t110 -39q92 0 164.5 40t156.5 118v524h-162v137h338v-809h152v-137h-328v147h-4q-61 -78 -154.5 -122.5t-193.5 -44.5q-309 0 -301 309v520h-137zM340 1104v209h186v-209h-186zM670 1104v209h186v-209h-186z" />
<glyph unicode="&#xfd;" horiz-adv-x="1138" d="M31 809v137h442v-137h-147l225 -569h4l246 569h-142v137h426v-137h-112l-490 -1098h179v-137h-510v137h167l142 322l-316 776h-114zM432 1081l182 289h224l-269 -289h-137z" />
<glyph unicode="&#xfe;" d="M51 1341v138h338v-660q76 80 154 114t188 34q180 0 312.5 -142.5t132.5 -355.5t-131.5 -351t-313.5 -138q-221 0 -338 149h-4v-418h176v-137h-512v137h160v1630h-162zM389 473q0 -156 87 -255t218 -99t218 99t87 255t-87 255t-218 99t-218 -99t-87 -255z" />
<glyph unicode="&#xff;" horiz-adv-x="1138" d="M31 809v137h442v-137h-147l225 -569h4l246 569h-142v137h426v-137h-112l-490 -1098h179v-137h-510v137h167l142 322l-316 776h-114zM313 1104v209h187v-209h-187zM643 1104v209h186v-209h-186z" />
<glyph unicode="&#x152;" horiz-adv-x="2048" d="M59 739q0 303 193.5 521.5t505.5 218.5h1231v-385h-177v243h-565v-471h486v-159h-486v-566h563v310h177v-451h-1229q-315 0 -507 216t-192 523zM254 745q0 -266 152.5 -435t408.5 -169h86q152 0 152 97v1003q0 96 -152 96h-86q-231 0 -396 -150.5t-165 -441.5z" />
<glyph unicode="&#x153;" horiz-adv-x="1933" d="M70 473q0 223 143 358.5t362 135.5q88 0 159 -20.5t122 -61.5t72.5 -63.5t54.5 -65.5q57 98 162.5 154.5t224.5 56.5q217 0 355.5 -146.5t138.5 -406.5h-795q10 -125 99 -210t218 -85q115 0 202 58.5t95 96.5h160q-59 -143 -178 -218.5t-276 -75.5q-262 0 -402 204 q-156 -205 -412 -204q-231 0 -368 130t-137 363zM246 473q0 -158 90 -256t239 -98q156 0 248 97t92 257t-92 257t-248 97q-150 0 -239.5 -98t-89.5 -256zM1075 551h613q0 90 -91.5 183t-224.5 93q-113 0 -201 -79.5t-96 -196.5z" />
<glyph unicode="&#x178;" horiz-adv-x="1366" d="M41 1337v142h520v-142h-170l301 -489h4l291 489h-151v142h489v-142h-147l-398 -659v-537h174v-141h-544v141h176v523l-393 673h-152zM451 1591v209h186v-209h-186zM780 1591v209h187v-209h-187z" />
<glyph unicode="&#x2c6;" horiz-adv-x="681" d="M43 1081l205 289h188l205 -289h-164l-135 193l-135 -193h-164z" />
<glyph unicode="&#x2dc;" horiz-adv-x="681" d="M-6 1100q4 94 62.5 157.5t150.5 63.5q61 0 151 -39q100 -39 131 -39q86 0 97 94h104q-6 -84 -62.5 -153.5t-138.5 -69.5q-51 0 -159 39q-100 39 -154 39q-31 0 -58.5 -29.5t-29.5 -62.5h-94z" />
<glyph unicode="&#x2000;" horiz-adv-x="993" />
<glyph unicode="&#x2001;" horiz-adv-x="1988" />
<glyph unicode="&#x2002;" horiz-adv-x="993" />
<glyph unicode="&#x2003;" horiz-adv-x="1988" />
<glyph unicode="&#x2004;" horiz-adv-x="661" />
<glyph unicode="&#x2005;" horiz-adv-x="495" />
<glyph unicode="&#x2006;" horiz-adv-x="329" />
<glyph unicode="&#x2007;" horiz-adv-x="329" />
<glyph unicode="&#x2008;" horiz-adv-x="247" />
<glyph unicode="&#x2009;" horiz-adv-x="397" />
<glyph unicode="&#x200a;" horiz-adv-x="108" />
<glyph unicode="&#x2010;" horiz-adv-x="681" d="M88 442v160h506v-160h-506z" />
<glyph unicode="&#x2011;" horiz-adv-x="681" d="M88 442v160h506v-160h-506z" />
<glyph unicode="&#x2012;" horiz-adv-x="681" d="M88 442v160h506v-160h-506z" />
<glyph unicode="&#x2013;" horiz-adv-x="1024" d="M0 461v123h1024v-123h-1024z" />
<glyph unicode="&#x2014;" horiz-adv-x="2048" d="M0 461v123h2048v-123h-2048z" />
<glyph unicode="&#x2018;" horiz-adv-x="454" d="M74 1051l127 428h182l-127 -428h-182z" />
<glyph unicode="&#x2019;" horiz-adv-x="454" d="M74 1051l127 428h182l-127 -428h-182z" />
<glyph unicode="&#x201a;" horiz-adv-x="454" d="M74 -182l127 428h182l-127 -428h-182z" />
<glyph unicode="&#x201c;" horiz-adv-x="909" d="M111 1051l127 428h182l-127 -428h-182zM489 1051l127 428h183l-127 -428h-183z" />
<glyph unicode="&#x201d;" horiz-adv-x="909" d="M111 1051l127 428h182l-127 -428h-182zM489 1051l127 428h183l-127 -428h-183z" />
<glyph unicode="&#x201e;" horiz-adv-x="909" d="M111 -182l127 428h182l-127 -428h-182zM489 -182l127 428h183l-127 -428h-183z" />
<glyph unicode="&#x2022;" horiz-adv-x="1024" d="M154 739.5q0 149.5 104 254t254 104.5t254 -104.5t104 -254t-104 -254t-254 -104.5t-254 104.5t-104 254z" />
<glyph unicode="&#x2026;" horiz-adv-x="2048" d="M213 119q0 53 38 92t91 39t92 -39t39 -92q0 -55 -38 -92t-93 -37q-53 0 -91 37t-38 92zM895 119q0 53 38 92t91 39t92 -39t39 -92q0 -55 -38 -92t-93 -37q-53 0 -91 37t-38 92zM1577 119q0 53 38 92t91 39t92 -39t39 -92q0 -55 -38 -92t-93 -37q-53 0 -91 37t-38 92z" />
<glyph unicode="&#x202f;" horiz-adv-x="397" />
<glyph unicode="&#x2039;" horiz-adv-x="681" d="M135 522l244 309h162l-244 -307l248 -325h-160z" />
<glyph unicode="&#x203a;" horiz-adv-x="681" d="M137 199l248 325l-244 307h162l244 -309l-250 -323h-160z" />
<glyph unicode="&#x205f;" horiz-adv-x="495" />
<glyph unicode="&#x20ac;" horiz-adv-x="1024" d="M-8 537l41 137h100v129h-141l41 137h100v31q0 246 124 377t333 131q66 0 140.5 -27t111.5 -72v66h139v-326h-133q-16 94 -76 146q-63 53 -182 53q-281 0 -281 -342v-37h508l-41 -137h-467v-129h428l-41 -137h-387v-72q0 -170 50.5 -254t209.5 -84q182 0 316 170l123 -102 q-182 -227 -441 -228q-238 0 -336 123t-98 373v74h-141z" />
<glyph unicode="&#x2122;" horiz-adv-x="2027" d="M45 1298v181h729v-181h-45q-31 133 -133 134h-96v-633q0 -68 12 -81t88 -22v-45h-381v45q78 8 91.5 21.5t13.5 81.5v633h-99q-104 0 -135 -134h-45zM860 1434v45h273l299 -607l315 607h233v-45q-68 -2 -89 -26t-21 -79v-530q0 -68 12 -81t88 -22v-45h-379v45 q76 8 89.5 21.5t13.5 81.5v461h-4l-306 -611h-24l-293 608h-4v-421q0 -78 18.5 -106t87.5 -34v-45h-270v45q68 6 86.5 34t18.5 106v493q0 43 -47.5 74t-96.5 31z" />
<glyph unicode="&#xe000;" horiz-adv-x="945" d="M0 945h945v-945h-945v945z" />
<glyph unicode="&#xfb01;" d="M59 0v137h174v672h-172v137h172v289q0 104 70 174t174 70h111v-138h-74q-104 0 -104 -131v-264h178v-137h-178v-672h178v-137h-529zM690 0v137h168v672h-162v137h338v-809h158v-137h-502zM780 1178v188h250v-188h-250z" />
<glyph unicode="&#xfb02;" d="M59 0v137h174v672h-172v137h172v289q0 104 70 174t174 70h111v-138h-74q-104 0 -104 -131v-264h178v-137h-178v-672h178v-137h-529zM690 0v137h168v1204h-162v138h338v-1342h158v-137h-502z" />
<glyph unicode="&#xfb03;" horiz-adv-x="2045" d="M1454 0v137h168v672h-162v137h338v-809h158v-137h-502zM1544 1178v188h250v-188h-250zM760 0v137h174v672h-172v137h172v289q0 104 69.5 174t174.5 70h110v-138h-74q-104 0 -104 -131v-264h178v-137h-178v-672h178v-137h-528zM78 0v137h174v672h-172v137h172v289 q0 104 69.5 174t174.5 70h110v-138h-74q-104 0 -104 -131v-264h178v-137h-178v-672h178v-137h-528z" />
<glyph unicode="&#xfb04;" horiz-adv-x="2045" d="M1456 0v137h166v1204h-162v138h338v-1342h158v-137h-500zM760 0v137h174v672h-172v137h172v289q0 104 69.5 174t174.5 70h110v-138h-74q-104 0 -104 -131v-264h178v-137h-178v-672h178v-137h-528zM78 0v137h174v672h-172v137h172v289q0 104 69.5 174t174.5 70h110v-138 h-74q-104 0 -104 -131v-264h178v-137h-178v-672h178v-137h-528z" />
</font>
</defs>
</svg>
